<?xml version="1.0" encoding="UTF-8"?>
<svg id="Layer_2" data-name="Layer 2" xmlns="http://www.w3.org/2000/svg" viewBox="0 0 1404.7 679.8">
  <defs>
    <style>
      .cls-1 {
        fill: #fff;
      }

      .cls-1, .cls-2, .cls-3, .cls-4, .cls-5, .cls-6 {
        stroke: #231f20;
        stroke-miterlimit: 10;
      }

      .cls-1, .cls-2, .cls-4, .cls-5, .cls-6 {
        stroke-width: 4.6px;
      }

      .cls-2 {
        fill: #a1cf6d;
      }

      .cls-3 {
        stroke-width: 4.6px;
      }

      .cls-3, .cls-5 {
        fill: #f5ec43;
      }

      .cls-4 {
        fill: #00b1dc;
      }

      .cls-6 {
        fill: #231f20;
      }
    </style>
  </defs>
  <g id="Layer_16" data-name="Layer 16">
    <g>
      <path class="cls-1" d="M814.91,255.63c-26.35,63.57,1.14,127.49,54.34,164.11,17.72,12.2,33.8,15.5,37.08,16.09,22.93,4.15,50.53,5.46,72.26-2.27,38.08-13.54,68.65-41.34,82.48-75.73,11.58-28.81,10.27-60.78-2.68-89.12-10.66-23.33-28.29-53.85-55.08-72.11-49.24-33.56-110.45-32.4-149.32,1.24-15.77,13.64-34.52,46.78-39.08,57.78Z"/>
      <path class="cls-2" d="M820.63,537.34c-10.31,24.87.45,49.87,21.26,64.2,6.93,4.77,13.22,6.06,14.5,6.29,8.97,1.62,19.77,2.14,28.27-.89,14.9-5.3,26.86-16.17,32.27-29.62,4.53-11.27,4.02-23.78-1.05-34.86-4.17-9.12-11.07-21.07-21.55-28.21-19.26-13.13-43.2-12.67-58.41.49-6.17,5.34-13.5,18.3-15.29,22.6Z"/>
      <path class="cls-4" d="M452.71,453.7c.58,26.91,20.49,45.47,45.3,50.21,8.27,1.58,14.55.23,15.81-.08,8.86-2.13,18.96-6,25.52-12.19,11.5-10.85,18.07-25.62,17.61-40.11-.39-12.14-5.89-23.38-15-31.49-7.49-6.67-18.61-14.83-31.08-17.15-22.92-4.26-44.65,5.79-53.27,23.96-3.5,7.37-4.99,22.19-4.89,26.84Z"/>
      <path class="cls-3" d="M1097.65,351.02c-1.04,16.23,10,28.43,24.7,32.56,4.9,1.37,8.75.88,9.52.77,5.45-.83,11.72-2.64,15.99-6.03,7.48-5.94,12.2-14.5,12.66-23.24.39-7.33-2.35-14.38-7.41-19.73-4.17-4.4-10.45-9.88-17.83-11.92-13.58-3.74-27.18,1.19-33.31,11.69-2.48,4.26-4.15,13.1-4.33,15.91Z"/>
      <path class="cls-1" d="M1131.98,242.51c-.6,9.4,5.79,16.45,14.29,18.84,2.83.8,5.06.51,5.51.44,3.15-.48,6.78-1.53,9.26-3.49,4.33-3.44,7.06-8.39,7.33-13.45.23-4.24-1.36-8.32-4.29-11.42-2.41-2.55-6.05-5.72-10.32-6.9-7.86-2.17-15.73.69-19.28,6.77-1.44,2.46-2.4,7.58-2.5,9.21Z"/>
      <path class="cls-5" d="M1152.2,528.44c-.6,9.4,5.79,16.45,14.29,18.84,2.83.8,5.06.51,5.51.44,3.15-.48,6.78-1.53,9.26-3.49,4.33-3.44,7.06-8.39,7.33-13.45.23-4.24-1.36-8.32-4.29-11.42-2.41-2.55-6.05-5.72-10.32-6.9-7.86-2.17-15.73.69-19.28,6.77-1.44,2.46-2.4,7.58-2.5,9.21Z"/>
      <path class="cls-5" d="M1021.22,19c-.6,9.4,5.79,16.45,14.29,18.84,2.83.8,5.06.51,5.51.44,3.15-.48,6.78-1.53,9.26-3.49,4.33-3.44,7.06-8.39,7.33-13.45.23-4.24-1.36-8.32-4.29-11.42-2.41-2.55-6.05-5.72-10.32-6.9-7.86-2.17-15.73.69-19.28,6.77-1.44,2.46-2.4,7.58-2.5,9.21Z"/>
      <path class="cls-2" d="M973.37,90.87c-.6,9.4,5.79,16.45,14.29,18.84,2.83.8,5.06.51,5.51.44,3.15-.48,6.78-1.53,9.26-3.49,4.33-3.44,7.06-8.39,7.33-13.45.23-4.24-1.36-8.32-4.29-11.42-2.41-2.55-6.05-5.72-10.32-6.9-7.86-2.17-15.73.69-19.28,6.77-1.44,2.46-2.4,7.58-2.5,9.21Z"/>
      <path class="cls-2" d="M1365.99,399.79c-.6,9.4,5.79,16.45,14.29,18.84,2.83.8,5.06.51,5.51.44,3.15-.48,6.78-1.53,9.26-3.49,4.33-3.44,7.06-8.39,7.33-13.45.23-4.24-1.36-8.32-4.29-11.42-2.41-2.55-6.05-5.72-10.32-6.9-7.86-2.17-15.73.69-19.28,6.77-1.44,2.46-2.4,7.58-2.5,9.21Z"/>
      <path class="cls-6" d="M693.67,62.71c-.6,9.4,5.79,16.45,14.29,18.84,2.83.8,5.06.51,5.51.44,3.15-.48,6.78-1.53,9.26-3.49,4.33-3.44,7.06-8.39,7.33-13.45.23-4.24-1.36-8.32-4.29-11.42-2.41-2.55-6.05-5.72-10.32-6.9-7.86-2.17-15.73.69-19.28,6.77-1.44,2.46-2.4,7.58-2.5,9.21Z"/>
      <path class="cls-4" d="M693.67,208.01c-.6,9.4,5.79,16.45,14.29,18.84,2.83.8,5.06.51,5.51.44,3.15-.48,6.78-1.53,9.26-3.49,4.33-3.44,7.06-8.39,7.33-13.45.23-4.24-1.36-8.32-4.29-11.42-2.41-2.55-6.05-5.72-10.32-6.9-7.86-2.17-15.73.69-19.28,6.77-1.44,2.46-2.4,7.58-2.5,9.21Z"/>
      <path class="cls-5" d="M753.01,220.47c-.6,9.4,5.79,16.45,14.29,18.84,2.83.8,5.06.51,5.51.44,3.15-.48,6.78-1.53,9.26-3.49,4.33-3.44,7.06-8.39,7.33-13.45.23-4.24-1.36-8.32-4.29-11.42-2.41-2.55-6.05-5.72-10.32-6.9-7.86-2.17-15.73.69-19.28,6.77-1.44,2.46-2.4,7.58-2.5,9.21Z"/>
      <path class="cls-6" d="M734.78,352c-.6,9.4,5.79,16.45,14.29,18.84,2.83.8,5.06.51,5.51.44,3.15-.48,6.78-1.53,9.26-3.49,4.33-3.44,7.06-8.39,7.33-13.45.23-4.24-1.36-8.32-4.29-11.42-2.41-2.55-6.05-5.72-10.32-6.9-7.86-2.17-15.73.69-19.28,6.77-1.44,2.46-2.4,7.58-2.5,9.21Z"/>
      <path class="cls-5" d="M734.78,540.91c-.6,9.4,5.79,16.45,14.29,18.84,2.83.8,5.06.51,5.51.44,3.15-.48,6.78-1.53,9.26-3.49,4.33-3.44,7.06-8.39,7.33-13.45.23-4.24-1.36-8.32-4.29-11.42-2.41-2.55-6.05-5.72-10.32-6.9-7.86-2.17-15.73.69-19.28,6.77-1.44,2.46-2.4,7.58-2.5,9.21Z"/>
      <path class="cls-1" d="M641.97,594.21c-.6,9.4,5.79,16.45,14.29,18.84,2.83.8,5.06.51,5.51.44,3.15-.48,6.78-1.53,9.26-3.49,4.33-3.44,7.06-8.39,7.33-13.45.23-4.24-1.36-8.32-4.29-11.42-2.41-2.55-6.05-5.72-10.32-6.9-7.86-2.17-15.73.69-19.28,6.77-1.44,2.46-2.4,7.58-2.5,9.21Z"/>
      <path class="cls-5" d="M722.37,658.11c-.6,9.4,5.79,16.45,14.29,18.84,2.83.8,5.06.51,5.51.44,3.15-.48,6.78-1.53,9.26-3.49,4.33-3.44,7.06-8.39,7.33-13.45.23-4.24-1.36-8.32-4.29-11.42-2.41-2.55-6.05-5.72-10.32-6.9-7.86-2.17-15.73.69-19.28,6.77-1.44,2.46-2.4,7.58-2.5,9.21Z"/>
      <path class="cls-6" d="M292.83,418.55c-.6,9.4,5.79,16.45,14.29,18.84,2.83.8,5.06.51,5.51.44,3.15-.48,6.78-1.53,9.26-3.49,4.33-3.44,7.06-8.39,7.33-13.45.23-4.24-1.36-8.32-4.29-11.42-2.41-2.55-6.05-5.72-10.32-6.9-7.86-2.17-15.73.69-19.28,6.77-1.44,2.46-2.4,7.58-2.5,9.21Z"/>
      <path class="cls-5" d="M573.54,329.3c-.6,9.4,5.79,16.45,14.29,18.84,2.83.8,5.06.51,5.51.44,3.15-.48,6.78-1.53,9.26-3.49,4.33-3.44,7.06-8.39,7.33-13.45.23-4.24-1.36-8.32-4.29-11.42-2.41-2.55-6.05-5.72-10.32-6.9-7.86-2.17-15.73.69-19.28,6.77-1.44,2.46-2.4,7.58-2.5,9.21Z"/>
      <path class="cls-6" d="M489.45,313.63c-.6,9.4,5.79,16.45,14.29,18.84,2.83.8,5.06.51,5.51.44,3.15-.48,6.78-1.53,9.26-3.49,4.33-3.44,7.06-8.39,7.33-13.45.23-4.24-1.36-8.32-4.29-11.42-2.41-2.55-6.05-5.72-10.32-6.9-7.86-2.17-15.73.69-19.28,6.77-1.44,2.46-2.4,7.58-2.5,9.21Z"/>
      <path class="cls-1" d="M474.5,226.57c-.6,9.4,5.79,16.45,14.29,18.84,2.83.8,5.06.51,5.51.44,3.15-.48,6.78-1.53,9.26-3.49,4.33-3.44,7.06-8.39,7.33-13.45.23-4.24-1.36-8.32-4.29-11.42-2.41-2.55-6.05-5.72-10.32-6.9-7.86-2.17-15.73.69-19.28,6.77-1.44,2.46-2.4,7.58-2.5,9.21Z"/>
      <path class="cls-5" d="M2.34,425.67c-.6,9.4,5.79,16.45,14.29,18.84,2.83.8,5.06.51,5.51.44,3.15-.48,6.78-1.53,9.26-3.49,4.33-3.44,7.06-8.39,7.33-13.45.23-4.24-1.36-8.32-4.29-11.42-2.41-2.55-6.05-5.72-10.32-6.9-7.86-2.17-15.73.69-19.28,6.77-1.44,2.46-2.4,7.58-2.5,9.21Z"/>
      <path class="cls-2" d="M420.19,302.59c-.6,9.4,5.79,16.45,14.29,18.84,2.83.8,5.06.51,5.51.44,3.15-.48,6.78-1.53,9.26-3.49,4.33-3.44,7.06-8.39,7.33-13.45.23-4.24-1.36-8.32-4.29-11.42-2.41-2.55-6.05-5.72-10.32-6.9-7.86-2.17-15.73.69-19.28,6.77-1.44,2.46-2.4,7.58-2.5,9.21Z"/>
      <path class="cls-5" d="M608.04,150.72c27.64-5.43,43.19-29.28,43.62-55.71.14-8.8-2.38-15.03-2.92-16.28-3.78-8.75-9.59-18.46-17.15-24.12-13.25-9.91-29.65-14.03-44.5-10.95-12.44,2.58-23.04,10.27-29.77,21.11-5.53,8.92-11.94,21.85-12.1,35.12-.28,24.39,13.99,44.99,34.26,50.61,8.22,2.28,23.77,1.17,28.55.23Z"/>
      <path class="cls-5" d="M267.38,357.09c27.64-5.43,43.19-29.28,43.62-55.71.14-8.8-2.38-15.03-2.92-16.28-3.78-8.75-9.59-18.46-17.15-24.12-13.25-9.91-29.65-14.03-44.5-10.95-12.44,2.58-23.04,10.27-29.77,21.11-5.53,8.92-11.94,21.85-12.1,35.12-.28,24.39,13.99,44.99,34.26,50.61,8.22,2.28,23.77,1.17,28.55.23Z"/>
      <path class="cls-6" d="M1097.63,540.91c-.6,9.4,5.79,16.45,14.29,18.84,2.83.8,5.06.51,5.51.44,3.15-.48,6.78-1.53,9.26-3.49,4.33-3.44,7.06-8.39,7.33-13.45.23-4.24-1.36-8.32-4.29-11.42-2.41-2.55-6.05-5.72-10.32-6.9-7.86-2.17-15.73.69-19.28,6.77-1.44,2.46-2.4,7.58-2.5,9.21Z"/>
      <path class="cls-4" d="M1037.95,466.45c-.6,9.4,5.79,16.45,14.29,18.84,2.83.8,5.06.51,5.51.44,3.15-.48,6.78-1.53,9.26-3.49,4.33-3.44,7.06-8.39,7.33-13.45.23-4.24-1.36-8.32-4.29-11.42-2.41-2.55-6.05-5.72-10.32-6.9-7.86-2.17-15.73.69-19.28,6.77-1.44,2.46-2.4,7.58-2.5,9.21Z"/>
    </g>
  </g>
</svg>