<?xml version="1.0" encoding="UTF-8"?>
<svg id="Layer_2" data-name="Layer 2" xmlns="http://www.w3.org/2000/svg" viewBox="0 0 42.63 38.9">
  <defs>
    <style>
      .cls-1 {
        fill: none;
        stroke: #414042;
        stroke-miterlimit: 10;
        stroke-width: 2px;
      }

      .cls-2 {
        fill: #414042;
      }
    </style>
  </defs>
  <g id="Layer_16" data-name="Layer 16">
    <g>
      <path class="cls-2" d="M13.05,17.16c-1.82,4.48.08,8.98,3.75,11.57,1.22.86,2.33,1.09,2.56,1.13,1.58.29,3.49.38,4.99-.16,2.63-.95,4.74-2.91,5.7-5.34.8-2.03.71-4.28-.19-6.28-.74-1.64-1.95-3.8-3.8-5.08-3.4-2.37-7.63-2.28-10.31.09-1.09.96-2.38,3.3-2.7,4.07Z"/>
      <path class="cls-2" d="M31.35,34.43c.21,1.55,1.46,2.51,2.91,2.65.48.05.83-.07.9-.09.49-.17,1.04-.45,1.38-.85.59-.69.87-1.58.74-2.41-.1-.7-.49-1.32-1.06-1.74-.47-.34-1.16-.75-1.88-.82-1.34-.12-2.51.58-2.88,1.68-.15.45-.14,1.31-.11,1.58Z"/>
      <path class="cls-2" d="M36.88,16.04c-.51,1.48.18,2.9,1.42,3.67.41.26.77.31.85.32.52.07,1.13.06,1.61-.14.83-.36,1.48-1.03,1.75-1.83.22-.67.15-1.4-.17-2.03-.27-.52-.7-1.19-1.32-1.57-1.14-.7-2.51-.6-3.33.21-.33.33-.71,1.11-.8,1.36Z"/>
      <path class="cls-2" d="M24.85,2.04c-.51,1.48.18,2.9,1.42,3.67.41.26.77.31.85.32.52.07,1.13.06,1.61-.14.83-.36,1.48-1.03,1.75-1.83.22-.67.15-1.4-.17-2.03-.27-.52-.7-1.19-1.32-1.57-1.14-.7-2.51-.6-3.33.21-.33.33-.71,1.11-.8,1.36Z"/>
      <path class="cls-2" d="M4.94,5.35c-.51,1.48.18,2.9,1.42,3.67.41.26.77.31.85.32.52.07,1.13.06,1.61-.14.83-.36,1.48-1.03,1.75-1.83.22-.67.15-1.4-.17-2.03-.27-.52-.7-1.19-1.32-1.57-1.14-.7-2.51-.6-3.33.21-.33.33-.71,1.11-.8,1.36Z"/>
      <path class="cls-2" d="M.17,19.69c-.51,1.48.18,2.9,1.42,3.67.41.26.77.31.85.32.52.07,1.13.06,1.61-.14.83-.36,1.48-1.03,1.75-1.83.22-.67.15-1.4-.17-2.03-.27-.52-.7-1.19-1.32-1.57-1.14-.7-2.51-.6-3.33.21-.33.33-.71,1.11-.8,1.36Z"/>
      <path class="cls-2" d="M9.19,34.87c-.51,1.48.18,2.9,1.42,3.67.41.26.77.31.85.32.52.07,1.13.06,1.61-.14.83-.36,1.48-1.03,1.75-1.83.22-.67.15-1.4-.17-2.03-.27-.52-.7-1.19-1.32-1.57-1.14-.7-2.51-.6-3.33.21-.33.33-.71,1.11-.8,1.36Z"/>
      <path class="cls-2" d="M6.51,26.68c-.39,1.12.14,2.2,1.08,2.79.31.19.59.24.64.24.39.05.86.05,1.22-.11.63-.27,1.13-.78,1.33-1.39.17-.51.12-1.06-.13-1.54-.2-.39-.53-.91-1-1.2-.87-.53-1.9-.46-2.53.16-.25.25-.54.84-.61,1.04Z"/>
      <path class="cls-2" d="M21.51,33.57c-1.05.55-1.41,1.7-1.13,2.77.09.36.27.58.3.62.25.31.59.63.96.76.65.24,1.35.21,1.92-.1.47-.25.81-.69.96-1.21.12-.43.24-1.02.09-1.56-.26-.98-1.07-1.64-1.95-1.62-.36,0-.97.24-1.15.34Z"/>
      <path class="cls-2" d="M34.07,23.14c-1.05.55-1.41,1.7-1.13,2.77.09.36.27.58.3.62.25.31.59.63.96.76.65.24,1.35.21,1.92-.1.47-.25.81-.69.96-1.21.12-.43.24-1.02.09-1.56-.26-.98-1.07-1.64-1.95-1.62-.36,0-.97.24-1.15.34Z"/>
      <path class="cls-2" d="M32.45,9.51c-1.17.22-1.85,1.21-1.9,2.31-.02.37.08.63.11.68.15.37.38.77.7,1.01.55.42,1.23.59,1.86.47.53-.1.98-.42,1.28-.87.24-.37.53-.91.55-1.46.04-1.02-.54-1.88-1.39-2.12-.34-.1-1-.06-1.2-.02Z"/>
      <path class="cls-2" d="M17.91,3.12c-1.03.6-1.33,1.76-1,2.82.11.35.29.56.33.6.27.29.62.6,1,.72.66.21,1.36.14,1.91-.19.46-.28.78-.73.9-1.25.1-.43.19-1.03.02-1.56-.31-.97-1.15-1.59-2.03-1.53-.36.02-.96.29-1.14.39Z"/>
      <path class="cls-2" d="M7.03,13.27c-.76.92-.64,2.11.03,2.99.22.29.47.43.52.45.35.18.79.35,1.18.33.69-.03,1.33-.34,1.73-.83.34-.42.48-.95.42-1.49-.05-.44-.18-1.03-.52-1.47-.62-.8-1.62-1.1-2.43-.74-.33.15-.8.6-.93.76Z"/>
      <path class="cls-1" d="M22.48,27.68c-.04.91.2,6.7.24,7.61"/>
      <path class="cls-1" d="M26.25,25.9c.84.94,3.46,3.6,4.4,4.44.55.49,2.65,2.72,3.37,2.89"/>
      <path class="cls-1" d="M28.03,22.96c.63.13,5.07,1.14,5.62,1.47"/>
      <path class="cls-1" d="M28.54,18.88c1.14.11,3.8-.77,4.89-1.13s3.52-.39,4.64-.61"/>
      <path class="cls-1" d="M27.25,15.48c.44-.45,1.71-1.51,2.19-1.91.35-.3,1.76-1.12,2.2-1.29"/>
      <path class="cls-1" d="M27.25,4.94c-.4,2.05-1.9,6.06-2.4,8.1"/>
      <path class="cls-1" d="M18.97,6.58c-.1.92.09,2.66.32,3.55.09.35.18,1.39.27,1.74"/>
      <path class="cls-1" d="M8.84,7.56c1.68,1.77,5.41,4.6,7.33,6.1"/>
      <path class="cls-1" d="M9.5,15.16c.21-.01,1.73.69,1.93.76.6.19,2.49,1.04,3.08,1.23"/>
      <path class="cls-1" d="M4.78,20.89c1.36.1,3.96-.1,5.32-.09.69,0,2.8.28,3.49.36"/>
      <path class="cls-1" d="M9.68,27.09c.11-.17,1.34-.74,1.53-.82.79-.36,2.39-1.03,3.18-1.38"/>
      <path class="cls-1" d="M13.4,34.99c0-.24.58-1.86.69-2.07.39-.81.86-1.59,1.38-2.32.45-.63,1.35-2.06,1.69-2.75"/>
    </g>
  </g>
</svg>