<?xml version="1.0" encoding="UTF-8"?>
<svg id="Layer_2" data-name="Layer 2" xmlns="http://www.w3.org/2000/svg" viewBox="0 0 2182.57 1065.02">
  <defs>
    <style>
      .cls-1 {
        fill: #fff;
      }
    </style>
  </defs>
  <g id="Bakgrunn">
    <path class="cls-1" d="M150.55.19c61.41-7.09,84.37,189.63,267.24,259.68,85.17,32.63,130.19,9.11,252.11,7.56,265.32-3.36,474.71,102.65,571.37,151.6,263.54,133.44,259.41,250.71,404.3,256.83,235.01,9.92,353.85-294.01,456.32-252.11,125.39,51.27,106.66,571.52-70.59,635.32-140.15,50.44-239.77-234.71-552.13-274.8-203-26.06-251.31,82.78-577.34,148.75-235.88,47.73-565.62,114.44-753.82-55.46C-125.77,630.35,44.18,12.48,150.55.19Z"/>
  </g>
</svg>