<?xml version="1.0" encoding="UTF-8"?>
<svg id="Layer_2" data-name="Layer 2" xmlns="http://www.w3.org/2000/svg" viewBox="0 0 1348.58 666.19">
  <defs>
    <style>
      .cls-1 {
        fill: #231f20;
      }

      .cls-2 {
        fill: #fff;
      }

      .cls-3 {
        fill: #00b1dc;
      }

      .cls-4 {
        fill: #005ba7;
      }

      .cls-5 {
        fill: #0fa15c;
      }
    </style>
  </defs>
  <g id="Layer_16" data-name="Layer 16">
    <g>
      <g>
        <g>
          <path class="cls-4" d="M947.98,109.15c3.78-1.82,8.48-1.89,17.75-1.96,6.65-.05,12.19.75,23.27,2.36,1.81.26,5.14.79,7.48,3.32,1.86,2.01,2.92,4.75,2.71,7.72l-4,56.62-61.49-15.02,3.58-39.79c.27-3.03,1.57-5.87,3.67-8.08,1.79-1.87,4.1-3.75,7.05-5.17Z"/>
          <g>
            <path class="cls-2" d="M947.69,123.34c-2.57.27.02,5.17.02,7.75,2.51-.59,5.03-1.17,7.54-1.76-.43-2.38-.86-4.75-1.28-7.13-2.53,1.09-3.53.85-6.28,1.14Z"/>
            <path class="cls-2" d="M965.75,122.52c-2.53-.52-1.55,4.93-2.32,7.4,2.57.2,5.15.4,7.72.6.31-2.4.62-4.79.94-7.19-2.75.27-3.63-.26-6.33-.81Z"/>
            <path class="cls-2" d="M981.5,123.34c-2.57.27.02,5.17.02,7.75,2.51-.59,5.03-1.17,7.54-1.76-.43-2.38-.86-4.75-1.28-7.13-2.53,1.09-3.53.85-6.28,1.14Z"/>
            <path class="cls-2" d="M948.16,140.46c-2.58-.08-.68,5.12-1.02,7.69,2.57-.24,5.14-.49,7.71-.73-.1-2.41-.21-4.83-.31-7.24-2.66.74-3.62.37-6.37.28Z"/>
            <path class="cls-2" d="M965.75,140.04c-2.53-.52-1.55,4.93-2.32,7.4,2.57.2,5.15.4,7.72.6.31-2.4.62-4.79.94-7.19-2.75.27-3.63-.26-6.33-.81Z"/>
            <path class="cls-2" d="M982.93,139.92c-2.49-.68-1.87,4.82-2.8,7.23,2.55.37,5.11.73,7.66,1.1.47-2.37.93-4.74,1.4-7.11-2.76.09-3.6-.49-6.26-1.22Z"/>
          </g>
        </g>
        <g>
          <path class="cls-1" d="M876.87,133.91l1.37-48c.16-5.72,4.91-10.24,10.63-10.12l45.83.94c4.98.1,8.99,4.13,9.06,9.11-1.11,12.5-1.73,26.37-1.48,41.41.25,14.36,1.26,27.61,2.68,39.6-22.82-6.94-45.29-26.01-68.11-32.94Z"/>
          <g>
            <path class="cls-2" d="M886.92,88.44c-2.89.3.02,5.81.03,8.72,2.83-.66,5.65-1.32,8.48-1.98-.48-2.67-.96-5.35-1.44-8.02-2.85,1.23-3.97.96-7.06,1.28Z"/>
            <path class="cls-2" d="M907.23,87.52c-2.85-.59-1.74,5.55-2.61,8.32,2.89.23,5.78.45,8.68.68.35-2.69.7-5.39,1.05-8.08-3.09.31-4.08-.29-7.12-.91Z"/>
            <path class="cls-2" d="M924.94,88.44c-2.89.3.02,5.81.03,8.72,2.83-.66,5.65-1.32,8.48-1.98-.48-2.67-.96-5.35-1.44-8.02-2.85,1.23-3.97.96-7.06,1.28Z"/>
            <path class="cls-2" d="M887.46,107.68c-2.9-.09-.77,5.76-1.15,8.64,2.89-.27,5.78-.55,8.66-.82-.12-2.71-.23-5.43-.35-8.14-2.99.83-4.07.41-7.17.32Z"/>
            <path class="cls-2" d="M907.23,107.22c-2.85-.59-1.74,5.55-2.61,8.32,2.89.23,5.78.45,8.68.68.35-2.69.7-5.39,1.05-8.08-3.09.31-4.08-.29-7.12-.91Z"/>
            <path class="cls-2" d="M926.54,107.08c-2.8-.77-2.1,5.42-3.15,8.13,2.87.41,5.74.83,8.62,1.24.52-2.66,1.05-5.33,1.57-7.99-3.1.11-4.05-.55-7.04-1.37Z"/>
            <path class="cls-2" d="M886.92,127.84c-2.89.3.02,5.81.03,8.72,2.83-.66,5.65-1.32,8.48-1.98-.48-2.67-.96-5.35-1.44-8.02-2.85,1.23-3.97.96-7.06,1.28Z"/>
            <path class="cls-2" d="M907.23,126.92c-2.85-.59-1.74,5.55-2.61,8.32,2.89.23,5.78.45,8.68.68.35-2.69.7-5.39,1.05-8.08-3.09.31-4.08-.29-7.12-.91Z"/>
            <path class="cls-2" d="M924.94,127.84c-2.89.3.02,5.81.03,8.72,2.83-.66,5.65-1.32,8.48-1.98-.48-2.67-.96-5.35-1.44-8.02-2.85,1.23-3.97.96-7.06,1.28Z"/>
          </g>
        </g>
      </g>
      <g>
        <g>
          <path class="cls-4" d="M614.79,33.37c3.78-1.82,8.48-1.89,17.75-1.96,6.65-.05,12.19.75,23.27,2.36,1.81.26,5.14.79,7.48,3.32,1.86,2.01,2.92,4.75,2.71,7.72l-3.8,53.85-64.76-7.82,6.65-44.22c.27-3.03,1.57-5.87,3.67-8.08,1.79-1.87,4.1-3.75,7.05-5.17Z"/>
          <g>
            <path class="cls-2" d="M614.5,47.56c-2.57.27.02,5.17.02,7.75,2.51-.59,5.03-1.17,7.54-1.76-.43-2.38-.86-4.75-1.28-7.13-2.53,1.09-3.53.85-6.28,1.14Z"/>
            <path class="cls-2" d="M632.56,46.74c-2.53-.52-1.55,4.93-2.32,7.4,2.57.2,5.15.4,7.72.6.31-2.4.62-4.79.94-7.19-2.75.27-3.63-.26-6.33-.81Z"/>
            <path class="cls-2" d="M648.31,47.56c-2.57.27.02,5.17.02,7.75,2.51-.59,5.03-1.17,7.54-1.76-.43-2.38-.86-4.75-1.28-7.13-2.53,1.09-3.53.85-6.28,1.14Z"/>
            <path class="cls-2" d="M614.97,64.68c-2.58-.08-.68,5.12-1.02,7.69,2.57-.24,5.14-.49,7.71-.73-.1-2.41-.21-4.83-.31-7.24-2.66.74-3.62.37-6.37.28Z"/>
            <path class="cls-2" d="M632.56,64.26c-2.53-.52-1.55,4.93-2.32,7.4,2.57.2,5.15.4,7.72.6.31-2.4.62-4.79.94-7.19-2.75.27-3.63-.26-6.33-.81Z"/>
            <path class="cls-2" d="M649.73,64.14c-2.49-.68-1.87,4.82-2.8,7.23,2.55.37,5.11.73,7.66,1.1.47-2.37.93-4.74,1.4-7.11-2.76.09-3.6-.49-6.26-1.22Z"/>
          </g>
        </g>
        <g>
          <path class="cls-1" d="M543.68,83.56l1.37-73.44c.16-5.72,4.91-10.24,10.63-10.12l45.83.94c4.98.1,8.99,4.13,9.06,9.11-1.11,12.5-1.73,26.37-1.48,41.41.25,14.36,1.26,27.61,2.68,39.6-24.11-1.57-45.29-.57-68.11-7.5Z"/>
          <g>
            <path class="cls-2" d="M553.73,12.65c-2.89.3.02,5.81.03,8.72,2.83-.66,5.65-1.32,8.48-1.98-.48-2.67-.96-5.35-1.44-8.02-2.85,1.23-3.97.96-7.06,1.28Z"/>
            <path class="cls-2" d="M574.04,11.73c-2.85-.59-1.74,5.55-2.61,8.32,2.89.23,5.78.45,8.68.68.35-2.69.7-5.39,1.05-8.08-3.09.31-4.08-.29-7.12-.91Z"/>
            <path class="cls-2" d="M591.75,12.65c-2.89.3.02,5.81.03,8.72,2.83-.66,5.65-1.32,8.48-1.98-.48-2.67-.96-5.35-1.44-8.02-2.85,1.23-3.97.96-7.06,1.28Z"/>
            <path class="cls-2" d="M554.27,31.9c-2.9-.09-.77,5.76-1.15,8.64,2.89-.27,5.78-.55,8.66-.82-.12-2.71-.23-5.43-.35-8.14-2.99.83-4.07.41-7.17.32Z"/>
            <path class="cls-2" d="M574.04,31.44c-2.85-.59-1.74,5.55-2.61,8.32,2.89.23,5.78.45,8.68.68.35-2.69.7-5.39,1.05-8.08-3.09.31-4.08-.29-7.12-.91Z"/>
            <path class="cls-2" d="M593.35,31.3c-2.8-.77-2.1,5.42-3.15,8.13,2.87.41,5.74.83,8.62,1.24.52-2.66,1.05-5.33,1.57-7.99-3.1.11-4.05-.55-7.04-1.37Z"/>
            <path class="cls-2" d="M553.73,52.06c-2.89.3.02,5.81.03,8.72,2.83-.66,5.65-1.32,8.48-1.98-.48-2.67-.96-5.35-1.44-8.02-2.85,1.23-3.97.96-7.06,1.28Z"/>
            <path class="cls-2" d="M574.04,51.14c-2.85-.59-1.74,5.55-2.61,8.32,2.89.23,5.78.45,8.68.68.35-2.69.7-5.39,1.05-8.08-3.09.31-4.08-.29-7.12-.91Z"/>
            <path class="cls-2" d="M591.75,52.06c-2.89.3.02,5.81.03,8.72,2.83-.66,5.65-1.32,8.48-1.98-.48-2.67-.96-5.35-1.44-8.02-2.85,1.23-3.97.96-7.06,1.28Z"/>
          </g>
        </g>
      </g>
      <g>
        <g>
          <path class="cls-4" d="M183.78,124.44c3.69-1.98,8.39-2.26,17.65-2.74,6.64-.35,12.21.21,23.35,1.33,1.82.18,5.17.56,7.61,2.98,1.94,1.93,3.12,4.62,3.05,7.59l-2.96,19.99-58.38,46.98-.43-62.42c.14-3.04,1.3-5.94,3.31-8.23,1.7-1.95,3.93-3.93,6.81-5.48Z"/>
          <g>
            <path class="cls-2" d="M184.11,134.62c-2.56.38.24,5.16.37,7.75,2.48-.7,4.97-1.4,7.45-2.09-.53-2.36-1.06-4.71-1.6-7.07-2.48,1.2-3.49,1.01-6.22,1.42Z"/>
            <path class="cls-2" d="M202.12,133.01c-2.55-.41-1.33,5-2,7.49,2.58.09,5.16.17,7.74.26.21-2.41.41-4.81.62-7.22-2.73.39-3.63-.1-6.36-.53Z"/>
            <path class="cls-2" d="M217.89,133.13c-2.56.38.24,5.16.37,7.75,2.48-.7,4.97-1.4,7.45-2.09-.53-2.36-1.06-4.71-1.6-7.07-2.48,1.2-3.49,1.01-6.22,1.42Z"/>
            <path class="cls-2" d="M185.34,149.7c-2.58.04-.45,5.15-.68,7.72,2.56-.36,5.11-.71,7.67-1.07-.21-2.41-.42-4.81-.63-7.22-2.62.86-3.6.53-6.36.57Z"/>
            <path class="cls-2" d="M202.89,148.51c-2.55-.41-1.33,5-2,7.49,2.58.09,5.16.17,7.74.26.21-2.41.41-4.81.62-7.22-2.73.39-3.63-.1-6.36-.53Z"/>
            <path class="cls-2" d="M220.05,147.63c-2.52-.57-1.65,4.9-2.48,7.35,2.57.25,5.14.51,7.7.76.36-2.39.72-4.78,1.08-7.17-2.75.22-3.62-.33-6.31-.94Z"/>
          </g>
        </g>
        <g>
          <path class="cls-3" d="M115.9,214.95l-2.83-110.65c-.09-5.72,4.45-10.45,10.18-10.58l45.83-1.08c4.98-.12,9.16,3.73,9.46,8.7-.55,12.53-.57,26.42.36,41.43.88,14.33,1.18,52.87,1.18,52.87-5.28,3.48-11.64,7.06-19.09,10.18-17.69,7.41-33.89,9.04-45.08,9.13Z"/>
          <g>
            <path class="cls-2" d="M121.86,106.44c-2.87.43.27,5.81.41,8.71,2.79-.78,5.59-1.57,8.38-2.35-.6-2.65-1.2-5.3-1.8-7.95-2.79,1.35-3.93,1.13-7,1.59Z"/>
            <path class="cls-2" d="M142.1,104.62c-2.87-.46-1.5,5.62-2.24,8.43,2.9.1,5.8.2,8.7.29.23-2.71.46-5.41.69-8.12-3.07.44-4.09-.11-7.15-.6Z"/>
            <path class="cls-2" d="M159.84,104.76c-2.87.43.27,5.81.41,8.71,2.79-.78,5.59-1.57,8.38-2.35-.6-2.65-1.2-5.3-1.8-7.95-2.79,1.35-3.93,1.13-7,1.59Z"/>
            <path class="cls-2" d="M123.25,125.65c-2.91.04-.51,5.79-.76,8.69,2.87-.4,5.75-.8,8.62-1.2-.24-2.71-.47-5.41-.71-8.12-2.95.96-4.04.59-7.15.64Z"/>
            <path class="cls-2" d="M142.98,124.31c-2.87-.46-1.5,5.62-2.24,8.43,2.9.1,5.8.2,8.7.29.23-2.71.46-5.41.69-8.12-3.07.44-4.09-.11-7.15-.6Z"/>
            <path class="cls-2" d="M162.26,123.31c-2.83-.64-1.86,5.51-2.79,8.26,2.89.29,5.77.57,8.66.86.41-2.69.81-5.37,1.22-8.06-3.09.24-4.07-.37-7.1-1.06Z"/>
            <path class="cls-2" d="M123.6,145.8c-2.87.43.27,5.81.41,8.71,2.79-.78,5.59-1.57,8.38-2.35-.6-2.65-1.2-5.3-1.8-7.95-2.79,1.35-3.93,1.13-7,1.59Z"/>
            <path class="cls-2" d="M143.85,143.99c-2.87-.46-1.5,5.62-2.24,8.43,2.9.1,5.8.2,8.7.29.23-2.71.46-5.41.69-8.12-3.07.44-4.09-.11-7.15-.6Z"/>
            <path class="cls-2" d="M161.58,144.12c-2.87.43.27,5.81.41,8.71,2.79-.78,5.59-1.57,8.38-2.35-.6-2.65-1.2-5.3-1.8-7.95-2.79,1.35-3.93,1.13-7,1.59Z"/>
          </g>
        </g>
      </g>
      <g>
        <g>
          <path class="cls-1" d="M947.98,109.15c3.78-1.82,8.48-1.89,17.75-1.96,6.65-.05,12.19.75,23.27,2.36,1.81.26,5.14.79,7.48,3.32,1.86,2.01,2.92,4.75,2.71,7.72l-4,56.62-61.49-15.02,3.58-39.79c.27-3.03,1.57-5.87,3.67-8.08,1.79-1.87,4.1-3.75,7.05-5.17Z"/>
          <g>
            <path class="cls-2" d="M947.69,123.34c-2.57.27.02,5.17.02,7.75,2.51-.59,5.03-1.17,7.54-1.76-.43-2.38-.86-4.75-1.28-7.13-2.53,1.09-3.53.85-6.28,1.14Z"/>
            <path class="cls-2" d="M965.75,122.52c-2.53-.52-1.55,4.93-2.32,7.4,2.57.2,5.15.4,7.72.6.31-2.4.62-4.79.94-7.19-2.75.27-3.63-.26-6.33-.81Z"/>
            <path class="cls-2" d="M981.5,123.34c-2.57.27.02,5.17.02,7.75,2.51-.59,5.03-1.17,7.54-1.76-.43-2.38-.86-4.75-1.28-7.13-2.53,1.09-3.53.85-6.28,1.14Z"/>
            <path class="cls-2" d="M948.16,140.46c-2.58-.08-.68,5.12-1.02,7.69,2.57-.24,5.14-.49,7.71-.73-.1-2.41-.21-4.83-.31-7.24-2.66.74-3.62.37-6.37.28Z"/>
            <path class="cls-2" d="M965.75,140.04c-2.53-.52-1.55,4.93-2.32,7.4,2.57.2,5.15.4,7.72.6.31-2.4.62-4.79.94-7.19-2.75.27-3.63-.26-6.33-.81Z"/>
            <path class="cls-2" d="M982.93,139.92c-2.49-.68-1.87,4.82-2.8,7.23,2.55.37,5.11.73,7.66,1.1.47-2.37.93-4.74,1.4-7.11-2.76.09-3.6-.49-6.26-1.22Z"/>
          </g>
        </g>
        <g>
          <path class="cls-5" d="M876.87,133.91l1.37-48c.16-5.72,4.91-10.24,10.63-10.12l45.83.94c4.98.1,8.99,4.13,9.06,9.11-1.11,12.5-1.73,26.37-1.48,41.41.25,14.36,1.26,27.61,2.68,39.6-22.82-6.94-45.29-26.01-68.11-32.94Z"/>
          <g>
            <path class="cls-2" d="M886.92,88.44c-2.89.3.02,5.81.03,8.72,2.83-.66,5.65-1.32,8.48-1.98-.48-2.67-.96-5.35-1.44-8.02-2.85,1.23-3.97.96-7.06,1.28Z"/>
            <path class="cls-2" d="M907.23,87.52c-2.85-.59-1.74,5.55-2.61,8.32,2.89.23,5.78.45,8.68.68.35-2.69.7-5.39,1.05-8.08-3.09.31-4.08-.29-7.12-.91Z"/>
            <path class="cls-2" d="M924.94,88.44c-2.89.3.02,5.81.03,8.72,2.83-.66,5.65-1.32,8.48-1.98-.48-2.67-.96-5.35-1.44-8.02-2.85,1.23-3.97.96-7.06,1.28Z"/>
            <path class="cls-2" d="M887.46,107.68c-2.9-.09-.77,5.76-1.15,8.64,2.89-.27,5.78-.55,8.66-.82-.12-2.71-.23-5.43-.35-8.14-2.99.83-4.07.41-7.17.32Z"/>
            <path class="cls-2" d="M907.23,107.22c-2.85-.59-1.74,5.55-2.61,8.32,2.89.23,5.78.45,8.68.68.35-2.69.7-5.39,1.05-8.08-3.09.31-4.08-.29-7.12-.91Z"/>
            <path class="cls-2" d="M926.54,107.08c-2.8-.77-2.1,5.42-3.15,8.13,2.87.41,5.74.83,8.62,1.24.52-2.66,1.05-5.33,1.57-7.99-3.1.11-4.05-.55-7.04-1.37Z"/>
            <path class="cls-2" d="M886.92,127.84c-2.89.3.02,5.81.03,8.72,2.83-.66,5.65-1.32,8.48-1.98-.48-2.67-.96-5.35-1.44-8.02-2.85,1.23-3.97.96-7.06,1.28Z"/>
            <path class="cls-2" d="M907.23,126.92c-2.85-.59-1.74,5.55-2.61,8.32,2.89.23,5.78.45,8.68.68.35-2.69.7-5.39,1.05-8.08-3.09.31-4.08-.29-7.12-.91Z"/>
            <path class="cls-2" d="M924.94,127.84c-2.89.3.02,5.81.03,8.72,2.83-.66,5.65-1.32,8.48-1.98-.48-2.67-.96-5.35-1.44-8.02-2.85,1.23-3.97.96-7.06,1.28Z"/>
          </g>
        </g>
        <path class="cls-1" d="M54.16,301.58c71.01-53.7,135.51-115.85,208.82-166.55,20.44-14.14,42-26.37,65.39-34.94,22.75-8.34,46.58-13.63,70.61-16.54,49.72-6.02,99.89-2.29,149.4,3.85,52.99,6.57,105.72,15.67,159.13,18.33,26.88,1.34,53.96,1.48,80.58,5.93,21.77,3.64,43.38,8.9,64.33,15.86,28.43,9.45,54.44,23.63,81.77,35.62,25.54,11.2,51.92,16.28,79.83,15.15,26.88-1.09,53.09-6.24,77.62-17.51,33.87-15.55,62.68-40.63,87.25-68.3,7.97-8.98,15.51-18.31,22.79-27.86,1.95-2.56-2.39-5.05-4.32-2.52-25.54,33.49-55.47,65.07-92.33,86.16-23.33,13.36-48.8,21.29-75.52,23.93-29.6,2.93-58.48.54-86.21-10.59-26.02-10.44-50.34-24.53-76.66-34.35-43.39-16.18-88.45-23.51-134.57-25.46-26.13-1.11-52.13-2.6-78.12-5.53s-54.39-7.07-81.57-10.73c-94.09-12.7-196.53-21.19-282.78,26.86-39.33,21.91-74.81,51.59-109.55,80.05-34.8,28.51-68.94,57.83-104.11,85.9-8.03,6.41-16.12,12.74-24.31,18.93-2.53,1.92-.05,6.26,2.52,4.32h0Z"/>
      </g>
      <path class="cls-1" d="M842.43,557.74c11.53-.98,23.09-1.55,34.62-2.44,8.89-.69,17.69-1.93,26.37-3.97,14.02-3.3,27.75-7.85,41.41-12.36,26.4-8.73,52.87-17.52,78.99-27.08,16.66-6.1,31.56-16.14,45.24-27.29,16.45-13.4,31.34-28.65,45.64-44.28,16.31-17.82,31.89-36.3,47.48-54.75,16.81-19.89,33.63-39.78,51.09-59.11,17.77-19.68,36.18-38.82,55.83-56.64s39.84-33.76,62-47.53c5.32-3.3,10.73-6.46,16.23-9.45,2.83-1.54.31-5.86-2.52-4.32-22.62,12.33-43.65,27.39-63.39,43.92-20.2,16.92-39.04,35.41-57.08,54.61s-35.07,38.88-52.02,58.84c-16.04,18.89-31.9,37.94-48.28,56.54-14.64,16.62-29.68,32.97-46.07,47.89-13.56,12.34-28.2,23.89-44.69,32.08-10.91,5.42-22.75,8.84-34.23,12.81-13.32,4.61-26.65,9.21-40,13.73-16.19,5.48-32.4,11.03-48.9,15.52-4.93,1.34-9.89,2.56-14.9,3.52-4.48.86-7.86,1.34-12.1,1.78-10.02,1.04-20.1,1.42-30.15,2.15-3.53.26-7.05.54-10.58.84-3.18.27-3.21,5.27,0,5h0Z"/>
      <path class="cls-1" d="M75.84,434.88c50.18-3.32,99.11,10.24,145.52,28.11,48.07,18.51,94.4,41.15,142.91,58.57,51,18.31,103.3,32.72,155.7,46.39,25.52,6.66,51.41,10.63,77.66,13.09,13.15,1.23,26.32,2.17,39.49,3.18,4.82.37,9.76,1.14,14.59,1.12,1.39,0,2.92-.18,3.68-1.52,1.78-3.11-2.66-4.86-4.75-5.8-3.9-1.76-7.89-3.33-11.82-5.03s-8.05-3.47-11.7-5.83c-.69-.45-1.2-.8-1.54-1.11-.59-.53-.74-.9-.9-.96.03.01.05.39-.13.96-.02.05-.03.09-.19.13.11-.03.94-.48.51-.33,2.03-.74,4.17-1.02,6.32-1.21,3.18-.28,3.21-5.29,0-5s-9.24.46-11.01,4c-1.66,3.33,1.74,6.06,4.19,7.68,7.14,4.73,15.6,7.37,23.38,10.84,1.2.54,2.34,1.19,3.52,1.76.47.23-.19.07,0-.01-.27.12-.26-2.54.57-3.39.42-.43.95-.12-.23-.19-11.65-.66-23.3-1.77-34.93-2.68-26.26-2.07-52.52-4.68-78.29-10.34-26.38-5.8-52.5-13.42-78.48-20.77-26.06-7.36-51.99-15.22-77.62-23.97-25.29-8.63-50.19-18.28-74.78-28.74-23.17-9.86-46.16-20.13-69.5-29.61-45.83-18.61-93.99-34.44-143.94-34.89-6.08-.06-12.16.13-18.22.53-3.19.21-3.22,5.21,0,5h0Z"/>
      <path class="cls-1" d="M53.69,312.34c44.7-3.73,89.37,1.54,133.33,9.53s86.53,17.53,129.88,25.81c87.33,16.69,175.11,31.02,263.22,42.97,87.89,11.92,176.47,22.89,265.33,21.65,39.56-.55,79.25-3.35,118.45-8.69,28.95-3.95,57.79-9.51,85.68-18.3,51.04-16.09,96.61-44.63,134.66-82.26,5.09-5.03,10.02-10.22,14.82-15.54,2.15-2.38-1.37-5.93-3.54-3.54-36.73,40.66-82.22,73.43-133.93,92.01-60.83,21.86-127.12,27.97-191.27,30.62-88.67,3.67-177.21-6.15-265-17.61-87.57-11.43-174.83-25.23-261.66-41.35-43.45-8.07-86.68-17.13-130.02-25.76-42.08-8.39-84.72-15.65-127.75-15.83-10.75-.05-21.49.39-32.21,1.28-3.18.27-3.21,5.27,0,5h0Z"/>
      <path class="cls-1" d="M732.51,108.23c21.51,18.8,42.52,38.18,62.98,58.12s40.38,40.43,59.73,61.45c10.89,11.83,21.6,23.83,32.12,35.99.88,1.02,2.63.91,3.54,0,1.01-1.01.89-2.51,0-3.54-18.7-21.6-37.98-42.69-57.83-63.25-19.84-20.55-40.24-40.57-61.17-60.02-11.78-10.95-23.73-21.71-35.84-32.29-1.02-.89-2.54-1-3.54,0-.91.91-1.02,2.64,0,3.54h0Z"/>
      <path class="cls-1" d="M4.37,270.39c11.01-9.3,23.83-16.42,36.75-22.69,15.74-7.64,32.11-13.96,48.67-19.58,32.51-11.03,66.03-19.64,99.89-25.35,19.42-3.27,39.1-5.21,58.71-6.88,24.59-2.1,49.28-3.23,73.96-2.62,24.26.6,49.09,2.2,72.52,8.89,21.3,6.08,40.18,17.9,60.85,25.58,36.25,13.47,75.2,18.85,113.01,26.12,4.1.79,8.2,1.6,12.29,2.44,3.14.65,4.48-4.17,1.33-4.82-38.03-7.87-76.83-12.98-113.96-24.69-9.01-2.84-17.75-6.24-26.32-10.22-10.62-4.93-21.07-10.25-31.97-14.52-22.49-8.82-46.72-11.65-70.68-13.06s-50.11-.97-75.1.7c-22.14,1.48-44.36,3.55-66.33,6.75-33.46,4.89-66.6,13.09-98.8,23.34-17.03,5.42-33.86,11.56-50.21,18.8-14.11,6.25-28.06,13.33-40.59,22.39-2.59,1.87-5.11,3.83-7.54,5.89s1.09,5.6,3.54,3.54h0Z"/>
      <path class="cls-1" d="M454.17,95.55c0,15.56,0,31.11,0,46.67s0,33.66,0,50.48v24.94c0,3.22,5,3.22,5,0v-122.09c0-3.22-5-3.22-5,0h0Z"/>
      <path class="cls-1" d="M499.65,387.63c-.06,21.05,0,42.1.18,63.15s.48,42.1.91,63.15c.24,11.81.52,23.63.83,35.44.09,3.21,5.09,3.22,5,0-.56-21.04-1-42.09-1.32-63.14-.32-21.05-.51-42.1-.59-63.15-.04-11.82-.04-23.63-.01-35.45,0-3.22-4.99-3.22-5,0h0Z"/>
      <path class="cls-1" d="M497.78,368.44c-4.81.22-9.61.96-14.36,1.74-5.99.98-11.94,2.15-17.87,3.42-11.02,2.35-21.92,5.06-32.66,8.5-17.12,5.47-34.23,10.94-51.35,16.42-16.37,5.23-33.01,10.09-48.35,17.97-13.77,7.07-26.63,16.27-41.45,21.12-1.83.6-3.68,1.12-5.55,1.58-3.12.76-1.8,5.58,1.33,4.82,15.27-3.72,28.54-12.41,42.12-19.95,7.16-3.97,14.53-7.45,22.19-10.36s16.08-5.58,24.18-8.17c17.12-5.47,34.23-10.94,51.35-16.42,6.02-1.92,12.01-3.94,18.11-5.58,5.43-1.46,10.9-2.78,16.38-4.01,5.98-1.34,11.99-2.59,18.03-3.68,5.2-.94,9.99-1.75,15.04-2.2.95-.09,1.91-.15,2.86-.2,3.2-.14,3.22-5.14,0-5h0Z"/>
      <path class="cls-1" d="M276.13,427.8c16.22-24.72,33.93-48.45,53.04-71.01,5.41-6.39,10.94-12.68,16.57-18.89,2.16-2.38-1.37-5.92-3.54-3.54-20.15,22.21-38.95,45.64-56.25,70.14-4.83,6.84-9.54,13.76-14.14,20.77-1.77,2.7,2.56,5.21,4.32,2.52h0Z"/>
      <path class="cls-1" d="M238.45,251.3c-.08,20.8,2.04,41.6,6.31,61.95,1.2,5.72,2.57,11.4,4.11,17.04.84,3.1,5.67,1.78,4.82-1.33-5.37-19.72-8.69-39.97-9.8-60.38-.32-5.76-.46-11.52-.43-17.28.01-3.22-4.99-3.22-5,0h0Z"/>
      <path class="cls-1" d="M220.25,253.22c-8.21,18.44-19.22,35.62-32.66,50.69-3.8,4.26-7.78,8.35-11.93,12.26-2.34,2.21,1.2,5.74,3.54,3.54,14.93-14.09,27.69-30.51,37.65-48.46,2.8-5.05,5.37-10.23,7.72-15.51.55-1.23.36-2.69-.9-3.42-1.07-.62-2.87-.34-3.42.9h0Z"/>
      <path class="cls-1" d="M491.98,554.43c-24.74,8.86-48.34,20.85-70.02,35.71-6.13,4.2-12.09,8.63-17.9,13.26-1.06.84-.88,2.66,0,3.54,1.04,1.04,2.48.84,3.54,0,20.11-15.99,42.32-29.36,65.81-39.75,6.54-2.89,13.18-5.52,19.91-7.93,1.27-.45,2.12-1.7,1.75-3.08-.34-1.23-1.8-2.2-3.08-1.75h0Z"/>
      <path class="cls-1" d="M403.68,607.93c18.54,13.21,36.05,27.87,52.33,43.78,4.57,4.47,9.04,9.04,13.42,13.7,2.21,2.35,5.74-1.19,3.54-3.54-15.73-16.76-32.74-32.29-50.87-46.42-5.21-4.06-10.5-8.01-15.88-11.84-1.1-.78-2.78-.19-3.42.9-.73,1.26-.21,2.63.9,3.42h0Z"/>
      <path class="cls-1" d="M742.67,425.08c16.42,14.84,31.76,30.81,46.47,47.34,14.51,16.31,28.42,33.14,42.38,49.93,8.01,9.64,16.03,19.27,24.18,28.79.88,1.03,2.63.9,3.54,0,1.02-1.02.88-2.51,0-3.54-14.42-16.85-28.44-34.03-42.7-51.01s-28.3-33.19-43.43-48.91c-8.67-9.01-17.62-17.76-26.9-26.14-2.38-2.15-5.93,1.37-3.54,3.54h0Z"/>
      <path class="cls-1" d="M803.73,348.41c17.05,1.33,33.09,8.08,49.03,13.77,15.49,5.52,31.08,10.75,46.78,15.61,24.96,7.71,50.23,14.47,75.79,19.86,18.8,3.96,37.75,7.12,56.78,9.7,17.77,2.41,35.58,4.79,53.44,6.44,29.7,2.75,59.58,3.43,89.38,2.19,4.38-.18,8.76-.41,13.14-.67,3.2-.19,3.22-5.19,0-5-31.03,1.85-62.19,1.68-93.19-.73-18.92-1.47-37.75-3.94-56.56-6.41s-36.68-5.3-54.85-8.95c-24.68-4.95-49.08-11.21-73.19-18.4-15.34-4.58-30.56-9.53-45.68-14.77-16.03-5.56-31.93-12.45-48.6-15.9-4.05-.84-8.16-1.43-12.29-1.75-3.21-.25-3.19,4.75,0,5h0Z"/>
      <path class="cls-1" d="M795.31,285.97c26.08-8.04,52.49-14.99,79.15-20.78,7.46-1.62,14.94-3.15,22.43-4.6,1.33-.26,2.08-1.85,1.75-3.08-.38-1.39-1.74-2-3.08-1.75-26.79,5.17-53.37,11.46-79.63,18.89-7.35,2.08-14.67,4.24-21.96,6.49-3.07.95-1.76,5.77,1.33,4.82h0Z"/>
      <path class="cls-1" d="M744.34,97.56c6.81-16.35,16.1-31.75,27.38-45.39,3.25-3.93,6.66-7.72,10.22-11.36,2.25-2.3-1.28-5.84-3.54-3.54-12.89,13.19-23.83,28.31-32.29,44.7-2.4,4.66-4.59,9.43-6.6,14.27-.52,1.25.56,2.75,1.75,3.08,1.44.4,2.55-.49,3.08-1.75h0Z"/>
    </g>
  </g>
</svg>