<?xml version="1.0" encoding="UTF-8"?>
<svg id="Layer_2" data-name="Layer 2" xmlns="http://www.w3.org/2000/svg" viewBox="0 0 41.82 56.18">
  <defs>
    <style>
      .cls-1 {
        fill: #231f20;
      }

      .cls-2 {
        fill: none;
        stroke: #fff;
        stroke-miterlimit: 10;
        stroke-width: 4.6px;
      }
    </style>
  </defs>
  <g id="Layer_16" data-name="Layer 16">
    <g>
      <g>
        <path class="cls-1" d="M4.52,34.94c-1.14,4.3-2.73,8.77-1.67,13.09.24.97.66,1.98,1.5,2.53.62.41,1.39.52,2.13.62,6.01.8,12.02,1.6,18.03,2.4.81.11,1.67.21,2.43-.09,1.07-.42,1.68-1.52,2.18-2.55,5.04-10.63,5.44-22.84,9.02-34.05,1.15-3.62,2.3-8.37-.81-10.55-.99-.69-2.22-.92-3.4-1.12-7.29-1.22-12.92-2.56-20.31-2.65-.96-.01-1.98,0-2.8.51-.91.56-1.37,1.61-1.75,2.6-1.1,2.9-2.68,22.28-4.52,29.26Z"/>
        <path class="cls-1" d="M2.11,34.27c-.86,3.2-1.86,6.38-2.07,9.7-.19,2.96.25,6.81,2.9,8.63,1.28.88,2.77.97,4.27,1.17,1.71.23,3.41.45,5.12.68,3.41.45,6.82.91,10.23,1.36,1.52.2,3.14.59,4.66.2s2.57-1.36,3.39-2.6c1.62-2.46,2.58-5.58,3.45-8.37,1.81-5.76,2.78-11.74,4-17.65.63-3.03,1.32-6.05,2.22-9.01.73-2.39,1.5-4.8,1.54-7.32s-.83-5.13-2.99-6.7c-2.42-1.77-5.95-1.85-8.81-2.36s-5.84-1.03-8.78-1.4S14.77-.28,11.69.19c-4.25.65-5.24,4.86-5.78,8.44-.68,4.47-1.17,8.97-1.76,13.45-.51,3.96-.99,8.2-2.03,12.2-.81,3.12,4.01,4.45,4.82,1.33,1.77-6.79,2.26-13.97,3.14-20.91.32-2.53.5-4.94,1.18-7.66.09-.38.2-.74.37-1.09.45-.95.95-.89,1.97-.88,2.73.02,5.47.24,8.17.61s5.21.85,7.81,1.31c1.29.23,2.58.45,3.87.67.96.17,2.15.3,2.81,1.06.79.9.64,2.78.35,4.21-.47,2.34-1.32,4.59-1.93,6.9-1.37,5.21-2.24,10.54-3.37,15.8-1.07,4.96-2.22,10.37-4.75,14.82-.62,1.09-1.38.72-2.54.56-1.62-.21-3.25-.43-4.87-.65-3.33-.44-6.66-.89-9.99-1.33-.79-.11-1.6-.19-2.39-.32-.25-.04-.49-.09-.74-.14-.17-.04-.55-.3-.3-.06-.79-.76-.73-2.63-.73-3.63.02-3.17,1.12-6.24,1.93-9.28s-3.99-4.44-4.82-1.33Z"/>
      </g>
      <path class="cls-2" d="M32.12,23.25c-4.48.42-7.12-5.04-7.24-8.96,3.68,42.73-26.99,18.49-7.15,11.4"/>
    </g>
  </g>
</svg>