<?xml version="1.0" encoding="UTF-8"?>
<svg id="Layer_2" data-name="Layer 2" xmlns="http://www.w3.org/2000/svg" viewBox="0 0 79.13 50.81">
  <defs>
    <style>
      .cls-1 {
        fill: #fff;
        stroke: #231f20;
        stroke-miterlimit: 10;
        stroke-width: 4.6px;
      }
    </style>
  </defs>
  <g id="Layer_16" data-name="Layer 16">
    <path class="cls-1" d="M63.67,19.52v-.02c0-5.3-4.3-9.6-9.59-9.6-.02,0-.04,0-.06,0-.47-4.05-3.92-7.2-8.1-7.2-3.07,0-5.75,1.7-7.14,4.21-1.32-2.73-4.1-4.61-7.34-4.61-4.33,0-7.85,3.37-8.13,7.62-1.19-.68-2.56-1.07-4.03-1.07-4.5,0-8.16,3.65-8.16,8.16,0,1.51.42,2.92,1.14,4.14-5.74,1.59-9.97,6.11-9.97,12.36,0,7.51,6.09,13.59,13.59,13.59,3.15,0,6.05-1.08,8.35-2.88,1.72,2.58,4.66,4.29,7.99,4.29,3.86,0,7.17-2.28,8.7-5.56,1.53,3.28,4.84,5.56,8.7,5.56,3.17,0,5.97-1.54,7.72-3.91,1.78.86,3.77,1.35,5.88,1.35,7.51,0,13.59-6.09,13.59-13.59s-5.86-12.62-13.16-12.85Z"/>
  </g>
</svg>