<?xml version="1.0" encoding="UTF-8"?>
<svg id="Layer_2" data-name="Layer 2" xmlns="http://www.w3.org/2000/svg" viewBox="0 0 77.42 72.47">
  <defs>
    <style>
      .cls-1 {
        fill: #fff;
        stroke-width: 4.6px;
      }

      .cls-1, .cls-2 {
        stroke: #231f20;
        stroke-miterlimit: 10;
      }

      .cls-3 {
        fill: #231f20;
      }

      .cls-2 {
        fill: #0a0203;
      }

      .cls-4 {
        fill: #a1cf6d;
      }
    </style>
  </defs>
  <g id="Layer_16" data-name="Layer 16">
    <g>
      <g>
        <path class="cls-4" d="M33.34,5.73c-4.83-.66-10.02-.33-14.13,2.29-4.11,2.61-6.74,7.95-5.08,12.54l-1.02,3.21c-5.89-.2-10.65,5.85-10.65,11.74,0,5.3,2.49,14.68,12.08,14.68,4.06,0,1.27,6.41,4.71,8.57l1.75-.48c.69,4.17,3.55,7.85,7.27,9.85s8.23,2.35,12.32,1.27c1.71-.45,2.72-1.06,4.08-2.18.18-.15.59-.6.8-.74.07-.04.14-.06.21-.02,1,.44,5.58,2.34,8.38,1.16,3.15-1.33,5.29-4.28,7.08-7.19,1.93-3.12,3.7-6.48,4-10.13l2.31,1.63c1.77,1.69,4.95.64,6.26-1.43,1.3-2.07,1.26-4.69,1.11-7.14-.16-2.61-.48-5.46-2.36-7.27-2.4-2.32-6.23-1.97-9.53-1.47l3.03-3.93c2-2.71,1.95-6.75-.11-9.42-2.06-2.67-5.96-3.73-9.09-2.47l.4-.33c.43-4.13.74-8.71-1.77-12.02-2.82-3.71-8.16-4.38-12.77-3.72-2.99.43-6.03,1.34-8.27,3.37s-3.49,5.37-2.38,8.18"/>
        <path class="cls-3" d="M33.34,3.23c-5.85-.76-12.19-.07-16.92,3.75-4.1,3.31-6.44,9.11-4.71,14.24v-1.33c-.34,1.07-.68,2.14-1.02,3.21l2.41-1.84c-5.03-.07-9.48,3.3-11.59,7.74-1.79,3.78-1.87,7.86-.89,11.87.9,3.67,2.81,7.07,5.87,9.34,1.66,1.23,3.64,1.97,5.67,2.27.61.09,1.22.16,1.84.18.26,0,.52.03.78.02-.43.02-.12-.05,0,.04-.01-.01-.74-.47-.32-.12-.11-.09-.21-.41-.07-.04-.21-.56.12.51.16.7s.07.38.1.58c-.08-.51.03.29.04.31.08.6.15,1.2.25,1.79.18,1.02.5,2.04,1.03,2.93.75,1.24,2.07,2.5,3.61,2.34.71-.08,1.4-.34,2.09-.53l-3.08-1.75c1.09,6.01,5.82,10.81,11.54,12.66,3.12,1.01,6.47,1.09,9.68.52,1.46-.26,2.9-.69,4.21-1.41,1.21-.66,2.16-1.63,3.22-2.47l-1.77.73.21-.02-1.26-.34c2.07.91,4.19,1.6,6.45,1.82,3.11.31,5.79-1.01,8.04-3.08s3.92-4.76,5.41-7.38c1.73-3.03,2.98-6.2,3.33-9.68l-3.76,2.16c.74.52,1.49,1.03,2.22,1.56.15.1.09.06-.18-.12.24.2.5.39.76.57.44.26.94.47,1.43.6.93.25,1.91.23,2.85.06,4.56-.83,6.38-5.34,6.43-9.5.05-3.84-.25-8.67-3.3-11.43-3.28-2.97-7.77-2.59-11.83-1.98l2.82,3.67c.91-1.17,1.81-2.35,2.72-3.52,1.55-2.01,2.31-4.58,2.09-7.12-.58-6.63-7.44-11.22-13.79-8.85l2.43,4.18c1.37-1.12,1.26-3.01,1.36-4.66.12-1.87.07-3.73-.24-5.58-.59-3.54-2.65-6.7-5.82-8.44C50.9.26,47.36-.19,44.05.07c-3.84.3-7.75,1.29-10.81,3.73-3.23,2.58-5.09,7.12-3.66,11.14.45,1.27,1.7,2.12,3.08,1.75,1.23-.34,2.2-1.8,1.75-3.08-1.07-2.99,1.02-5.64,3.59-6.98,2.75-1.43,6.21-1.83,9.27-1.58,2.6.21,5.28,1.25,6.63,3.6,1.64,2.87,1.12,6.66.79,9.79l.73-1.77-.4.33c-1.9,1.56.14,5.03,2.43,4.18,3.79-1.41,7.98,1.27,7.48,5.52-.29,2.51-2.67,4.72-4.14,6.63-.59.77-.35,2.09.2,2.78.68.85,1.59,1.05,2.63.9,2.17-.32,5.33-.84,7.1.82s1.69,5.11,1.7,7.36c.01,1.96-.36,4.98-2.72,5.06-.36.01-.29-.01-.71-.31-.25-.17-.49-.36-.74-.53l-1.83-1.29c-1.7-1.2-3.59.46-3.76,2.16-.4,4-2.81,7.83-5.09,11.03-1.04,1.46-2.3,2.83-3.88,3.7-1.2.66-2.48.52-3.82.2-.74-.17-1.46-.4-2.18-.65-.26-.09-.51-.2-.76-.29-.07-.02-.38-.15-.02,0,.43.18-.48-.21-.56-.24-2.07-.57-3.36,1.6-5,2.44-3.19,1.63-7.78,1.3-10.98-.1-3.66-1.6-6.26-4.85-6.97-8.77-.24-1.33-1.87-2.08-3.08-1.75l-1.75.48,1.93.25c.32.22-.48-.52-.16-.14-.09-.1-.18-.29-.24-.42.16.36,0-.01-.03-.08-.11-.32-.19-.64-.25-.97-.03-.17-.06-.33-.09-.5-.08-.44,0,.05-.03-.21-.2-1.5-.28-3.08-1.09-4.4-1-1.63-2.61-2.14-4.43-2.2-1.51-.05-2.95-.41-4.14-1.1-2.12-1.23-3.52-3.52-4.25-5.82-.2-.63-.37-1.28-.5-1.93-.07-.31-.12-.63-.17-.95-.02-.09-.07-.5,0-.03-.02-.19-.04-.38-.06-.56-.14-1.43-.13-2.83.25-4.22.96-3.55,3.92-6.86,7.81-6.81,1.13.02,2.08-.79,2.41-1.84.42-1.34,1.35-3.11,1.02-4.54-.27-1.15-.53-2.12-.34-3.32.2-1.26.71-2.43,1.39-3.5,3.31-5.19,10.26-5.56,15.75-4.84,1.34.18,2.5-1.27,2.5-2.5,0-1.5-1.15-2.32-2.5-2.5h0Z"/>
      </g>
      <g>
        <path class="cls-1" d="M21.09,22.76c-2.37,5.42-2.06,13.88-2.17,18.51.09,1.39,1.12,3.15,2.39,3.67,1.06.53,2.01.63,3.31.64,2.86.02,5.54-1.56,6.76-4.14.67-1.41,1.07-2.96,1.5-4.34.43-1.97,1.15-5.02,1.46-8.11-4.11-2.93-8.5-5.39-13.26-6.22Z"/>
        <path class="cls-2" d="M30.93,52.4c-.74.08-1.25.77-1.1,1.49.17.84.54,1.89,1.33,2.87,1.77,2.22,4.42,2.59,5.81,2.61.53,0,1.03-.21,1.36-.63,2.24-2.85,5.47-5.07,9.13-6.94.56-.28.3-1.13-.32-1.07-5.4.55-10.81,1.1-16.21,1.65Z"/>
        <path class="cls-4" d="M29.99,33.88c.32,2.96-3.55,4.39-4.31,1.12-.53-1.59.68-3.43,2.29-3.56.99.48,2.23,1.17,2.02,2.44Z"/>
      </g>
      <g>
        <path class="cls-1" d="M53.41,23.91c2.37,5.42,2.06,13.88,2.17,18.51-.09,1.39-1.12,3.15-2.39,3.67-1.35.67-2.75.81-4.1.36-.61-.2-1.25-.29-1.88-.4-3.26-.58-4.73-5-5.6-7.81-.43-1.97-1.15-5.02-1.46-8.11,4.11-2.93,8.5-5.39,13.26-6.22Z"/>
        <path class="cls-4" d="M44.51,35.03c-.32,2.96,3.55,4.39,4.31,1.12.53-1.59-.68-3.43-2.29-3.56-.99.48-2.23,1.17-2.02,2.44Z"/>
      </g>
    </g>
  </g>
</svg>