<?xml version="1.0" encoding="UTF-8"?>
<svg id="Layer_2" data-name="Layer 2" xmlns="http://www.w3.org/2000/svg" viewBox="0 0 40.8 29.02">
  <defs>
    <style>
      .cls-1 {
        fill: #231f20;
      }
    </style>
  </defs>
  <g id="Layer_16" data-name="Layer 16">
    <g>
      <path class="cls-1" d="M20.43,29.02c3.22,0,3.22-5,0-5s-3.22,5,0,5h0Z"/>
      <path class="cls-1" d="M15.25,21.69c-.19.23-.19.24,0,.04-.24.18-.25.19,0,.04.25-.13.24-.13-.03-.01.13-.05.26-.1.4-.14.51-.16,1.03-.25,1.56-.35.3-.05.31-.05.04-.01.16-.02.31-.04.47-.05.23-.02.47-.04.71-.05.59-.03,1.18-.02,1.77.03.27.02.55.04.82.08-.54-.07.41.08.5.1.54.11,1.07.25,1.6.41.3.09.59.21.89.31.5.17-.25-.14.27.11.57.27,1.12.56,1.66.89,1.12.68,2.8.28,3.42-.9s.3-2.69-.9-3.42c-2.63-1.6-5.66-2.49-8.74-2.61s-6.89.32-8.75,3.01c-.74,1.08-.24,2.82.9,3.42,1.27.67,2.63.26,3.42-.9h0Z"/>
      <path class="cls-1" d="M9.61,16.93c3.29-2.4,7.17-3.87,11.26-4.01,3.24-.11,7.67.34,9.55,3.39,1.69,2.73,6.01.22,4.32-2.52-2.73-4.42-8.16-5.87-13.08-5.88-5.18,0-10.39,1.65-14.57,4.71-1.09.8-1.63,2.17-.9,3.42.63,1.07,2.32,1.7,3.42.9h0Z"/>
      <path class="cls-1" d="M4.28,11.1c1.98-1.96,4.5-3.18,7.08-4.15,2.85-1.07,5.67-1.98,8.74-1.96s5.97.78,8.79,1.83c1.47.55,2.89,1.2,4.29,1.91,1.01.51,2.25,1.03,2.89,2.02,1.75,2.69,6.08.19,4.32-2.52-1.96-3.02-5.72-4.43-8.92-5.73C28,1.08,24.29.11,20.53,0s-7.24.89-10.7,2.2S3.3,5.02.74,7.57c-2.29,2.27,1.25,5.81,3.54,3.54h0Z"/>
    </g>
  </g>
</svg>